<svg width="500" height="150" viewBox="0 0 500 150" fill="none" xmlns="http://www.w3.org/2000/svg">
<path d="M72.7749 0L0 150H32.4607L104.712 0H72.7749Z" fill="#00FFC2"/>
<path d="M98.4293 34.6154L112.042 5.01672L179.581 112.375H143.979L98.4293 34.6154Z" fill="#00FFC2"/>
<path d="M112.565 101.338L95.288 72.7425L60.2094 150H248.691L324.084 0H169.634L196.335 29.097H275.916L230.89 122.408H102.618L112.565 101.338Z" fill="#00FFC2"/>
<path d="M340.838 0L268.063 150H299.476L357.592 29.097L375.393 59.699L330.89 150H361.257L406.283 59.699L454.45 29.097L395.288 150H427.225L500 0H468.063L397.906 44.1472L372.251 0H340.838Z" fill="#00FFC2"/>
</svg>
